<svg width="101" height="19" viewBox="0 0 101 19" fill="none" xmlns="http://www.w3.org/2000/svg">
<path d="M60.2129 5V4.64014C60.0321 4.92301 59.7662 5.06445 59.4153 5.06445C59.1879 5.06445 58.9784 5.00179 58.7869 4.87646C58.5971 4.75114 58.4494 4.57658 58.3438 4.35278C58.2399 4.1272 58.188 3.86849 58.188 3.57666C58.188 3.29199 58.2354 3.03418 58.3303 2.80322C58.4252 2.57048 58.5675 2.39233 58.7573 2.2688C58.9471 2.14526 59.1593 2.0835 59.3938 2.0835C59.5657 2.0835 59.7188 2.1202 59.853 2.1936C59.9873 2.26522 60.0965 2.35921 60.1807 2.47559V1.06299H60.6614V5H60.2129ZM58.6848 3.57666C58.6848 3.94189 58.7618 4.21493 58.9158 4.39575C59.0697 4.57658 59.2515 4.66699 59.4609 4.66699C59.6722 4.66699 59.8512 4.58105 59.998 4.40918C60.1466 4.23551 60.2209 3.97144 60.2209 3.61694C60.2209 3.22664 60.1458 2.94019 59.9954 2.75757C59.845 2.57495 59.6597 2.48364 59.4395 2.48364C59.2246 2.48364 59.0447 2.57137 58.8997 2.74683C58.7564 2.92228 58.6848 3.19889 58.6848 3.57666ZM63.7065 4.08154L64.206 4.14331C64.1272 4.43514 63.9813 4.66162 63.7682 4.82275C63.5552 4.98389 63.283 5.06445 62.9518 5.06445C62.5347 5.06445 62.2035 4.93644 61.9582 4.68042C61.7147 4.42261 61.5929 4.06185 61.5929 3.59814C61.5929 3.11833 61.7165 2.74593 61.9635 2.48096C62.2106 2.21598 62.5311 2.0835 62.925 2.0835C63.3063 2.0835 63.6178 2.2133 63.8595 2.4729C64.1012 2.7325 64.2221 3.09774 64.2221 3.5686C64.2221 3.59725 64.2212 3.64022 64.2194 3.69751H62.0925C62.1104 4.01082 62.199 4.25073 62.3583 4.41724C62.5177 4.58374 62.7164 4.66699 62.9545 4.66699C63.1318 4.66699 63.283 4.62044 63.4084 4.52734C63.5337 4.43424 63.6331 4.28564 63.7065 4.08154ZM62.1193 3.30005H63.7118C63.6904 3.06014 63.6295 2.88021 63.5292 2.76025C63.3752 2.57406 63.1756 2.48096 62.9303 2.48096C62.7083 2.48096 62.5212 2.55526 62.3691 2.70386C62.2187 2.85246 62.1354 3.05119 62.1193 3.30005ZM66.201 4.56763L66.2708 4.99463C66.1348 5.02327 66.013 5.0376 65.9056 5.0376C65.7301 5.0376 65.5941 5.00985 65.4974 4.95435C65.4007 4.89884 65.3327 4.82633 65.2933 4.73682C65.2539 4.64551 65.2342 4.45483 65.2342 4.16479V2.52393H64.8797V2.14795H65.2342V1.44165L65.7149 1.15161V2.14795H66.201V2.52393H65.7149V4.19165C65.7149 4.32951 65.723 4.41813 65.7391 4.45752C65.757 4.49691 65.7848 4.52824 65.8224 4.55151C65.8617 4.57479 65.9172 4.58643 65.9889 4.58643C66.0426 4.58643 66.1133 4.58016 66.201 4.56763ZM68.8674 4.64819C68.6884 4.80037 68.5156 4.9078 68.3491 4.97046C68.1844 5.03312 68.0072 5.06445 67.8174 5.06445C67.5041 5.06445 67.2633 4.98836 67.095 4.83618C66.9267 4.68221 66.8425 4.48617 66.8425 4.24805C66.8425 4.1084 66.8739 3.98128 66.9365 3.8667C67.001 3.75033 67.0842 3.65723 67.1863 3.5874C67.2901 3.51758 67.4065 3.46476 67.5354 3.42896C67.6303 3.40389 67.7735 3.37972 67.9651 3.35645C68.3554 3.3099 68.6428 3.25439 68.8272 3.18994C68.8289 3.1237 68.8298 3.08162 68.8298 3.06372C68.8298 2.86678 68.7842 2.72803 68.6929 2.64746C68.5693 2.53825 68.3858 2.48364 68.1423 2.48364C67.915 2.48364 67.7467 2.52393 67.6375 2.60449C67.53 2.68327 67.4504 2.82381 67.3984 3.02612L66.9258 2.96167C66.9688 2.75936 67.0395 2.59644 67.1379 2.4729C67.2364 2.34757 67.3788 2.25179 67.565 2.18555C67.7511 2.11751 67.9669 2.0835 68.2122 2.0835C68.4557 2.0835 68.6535 2.11214 68.8057 2.16943C68.9579 2.22673 69.0698 2.29924 69.1414 2.38696C69.213 2.4729 69.2631 2.58211 69.2918 2.7146C69.3079 2.79696 69.3159 2.94556 69.3159 3.1604V3.80493C69.3159 4.25431 69.3258 4.53898 69.3455 4.65894C69.367 4.7771 69.4081 4.89079 69.469 5H68.9641C68.914 4.89974 68.8818 4.78247 68.8674 4.64819ZM68.8272 3.5686C68.6517 3.64022 68.3885 3.70109 68.0376 3.75122C67.8389 3.77987 67.6983 3.81209 67.616 3.8479C67.5336 3.88371 67.4701 3.93652 67.4253 4.00635C67.3805 4.07438 67.3582 4.15047 67.3582 4.23462C67.3582 4.36353 67.4065 4.47095 67.5032 4.55688C67.6017 4.64282 67.7449 4.68579 67.9329 4.68579C68.1191 4.68579 68.2847 4.64551 68.4297 4.56494C68.5747 4.48258 68.6812 4.37069 68.7493 4.22925C68.8012 4.12004 68.8272 3.9589 68.8272 3.74585V3.5686ZM70.4006 1.6189V1.06299H70.884V1.6189H70.4006ZM70.4006 5V2.14795H70.884V5H70.4006ZM71.9417 5V1.06299H72.4251V5H71.9417ZM73.5098 1.6189V1.06299H73.9932V1.6189H73.5098ZM73.5098 5V2.14795H73.9932V5H73.5098ZM75.0617 5V2.14795H75.4968V2.55347C75.7062 2.24015 76.0088 2.0835 76.4045 2.0835C76.5764 2.0835 76.7339 2.11483 76.8771 2.17749C77.0222 2.23836 77.1305 2.31893 77.2021 2.41919C77.2737 2.51945 77.3238 2.63851 77.3525 2.77637C77.3704 2.86589 77.3793 3.02254 77.3793 3.24634V5H76.8959V3.26514C76.8959 3.0682 76.8771 2.92139 76.8395 2.82471C76.8019 2.72624 76.7348 2.64836 76.6381 2.59106C76.5432 2.53198 76.4313 2.50244 76.3024 2.50244C76.0965 2.50244 75.9184 2.56779 75.768 2.69849C75.6194 2.82918 75.5451 3.07715 75.5451 3.44238V5H75.0617ZM78.3646 5.23633L78.8346 5.30615C78.8543 5.45117 78.9089 5.5568 78.9984 5.62305C79.1184 5.71257 79.2822 5.75732 79.4899 5.75732C79.7136 5.75732 79.8864 5.71257 80.0082 5.62305C80.1299 5.53353 80.2123 5.4082 80.2552 5.24707C80.2803 5.1486 80.2919 4.94181 80.2901 4.62671C80.0789 4.87557 79.8157 5 79.5006 5C79.1085 5 78.805 4.85856 78.5902 4.57568C78.3754 4.29281 78.2679 3.95353 78.2679 3.55786C78.2679 3.28573 78.3172 3.03507 78.4156 2.80591C78.5141 2.57495 78.6564 2.39681 78.8426 2.27148C79.0306 2.14616 79.2508 2.0835 79.5033 2.0835C79.8399 2.0835 80.1174 2.21956 80.3358 2.4917V2.14795H80.7816V4.61328C80.7816 5.05729 80.7359 5.3715 80.6446 5.55591C80.5551 5.74211 80.4119 5.88892 80.215 5.99634C80.0198 6.10376 79.779 6.15747 79.4925 6.15747C79.1524 6.15747 78.8775 6.08049 78.6681 5.92651C78.4586 5.77433 78.3574 5.54427 78.3646 5.23633ZM78.7648 3.52295C78.7648 3.89714 78.8391 4.17017 78.9877 4.34204C79.1363 4.51392 79.3225 4.59985 79.5462 4.59985C79.7683 4.59985 79.9545 4.51481 80.1048 4.34473C80.2552 4.17285 80.3304 3.9043 80.3304 3.53906C80.3304 3.18994 80.2525 2.92676 80.0968 2.74951C79.9428 2.57227 79.7566 2.48364 79.5382 2.48364C79.3233 2.48364 79.1407 2.57137 78.9903 2.74683C78.84 2.92049 78.7648 3.1792 78.7648 3.52295ZM85.5666 3.95532L86.0419 4.01709C85.99 4.34473 85.8566 4.60164 85.6418 4.78784C85.4287 4.97225 85.1665 5.06445 84.8549 5.06445C84.4646 5.06445 84.1504 4.93734 83.9123 4.68311C83.676 4.42708 83.5578 4.06095 83.5578 3.58472C83.5578 3.27677 83.6088 3.00732 83.7109 2.77637C83.8129 2.54541 83.9678 2.37264 84.1755 2.25806C84.385 2.14168 84.6123 2.0835 84.8576 2.0835C85.1673 2.0835 85.4207 2.16227 85.6176 2.31982C85.8146 2.47559 85.9408 2.69759 85.9963 2.98584L85.5263 3.05835C85.4816 2.86678 85.4019 2.72266 85.2873 2.62598C85.1745 2.5293 85.0375 2.48096 84.8764 2.48096C84.6329 2.48096 84.4351 2.56868 84.2829 2.74414C84.1307 2.91781 84.0546 3.19352 84.0546 3.57129C84.0546 3.95443 84.128 4.23283 84.2749 4.40649C84.4217 4.58016 84.6132 4.66699 84.8496 4.66699C85.0393 4.66699 85.1978 4.60881 85.3249 4.49243C85.452 4.37606 85.5326 4.19702 85.5666 3.95532ZM88.7379 4.08154L89.2374 4.14331C89.1586 4.43514 89.0127 4.66162 88.7997 4.82275C88.5866 4.98389 88.3145 5.06445 87.9833 5.06445C87.5661 5.06445 87.2349 4.93644 86.9896 4.68042C86.7461 4.42261 86.6244 4.06185 86.6244 3.59814C86.6244 3.11833 86.7479 2.74593 86.995 2.48096C87.2421 2.21598 87.5625 2.0835 87.9564 2.0835C88.3378 2.0835 88.6493 2.2133 88.891 2.4729C89.1327 2.7325 89.2535 3.09774 89.2535 3.5686C89.2535 3.59725 89.2526 3.64022 89.2509 3.69751H87.1239C87.1418 4.01082 87.2304 4.25073 87.3898 4.41724C87.5491 4.58374 87.7478 4.66699 87.986 4.66699C88.1632 4.66699 88.3145 4.62044 88.4398 4.52734C88.5651 4.43424 88.6645 4.28564 88.7379 4.08154ZM87.1508 3.30005H88.7433C88.7218 3.06014 88.6609 2.88021 88.5607 2.76025C88.4067 2.57406 88.2071 2.48096 87.9618 2.48096C87.7398 2.48096 87.5527 2.55526 87.4005 2.70386C87.2501 2.85246 87.1669 3.05119 87.1508 3.30005ZM90.177 5V2.14795H90.6121V2.55347C90.8216 2.24015 91.1241 2.0835 91.5198 2.0835C91.6917 2.0835 91.8492 2.11483 91.9925 2.17749C92.1375 2.23836 92.2458 2.31893 92.3174 2.41919C92.389 2.51945 92.4392 2.63851 92.4678 2.77637C92.4857 2.86589 92.4947 3.02254 92.4947 3.24634V5H92.0113V3.26514C92.0113 3.0682 91.9925 2.92139 91.9549 2.82471C91.9173 2.72624 91.8501 2.64836 91.7535 2.59106C91.6586 2.53198 91.5467 2.50244 91.4178 2.50244C91.2119 2.50244 91.0337 2.56779 90.8833 2.69849C90.7347 2.82918 90.6604 3.07715 90.6604 3.44238V5H90.177ZM94.624 4.56763L94.6938 4.99463C94.5577 5.02327 94.436 5.0376 94.3286 5.0376C94.1531 5.0376 94.0171 5.00985 93.9204 4.95435C93.8237 4.89884 93.7557 4.82633 93.7163 4.73682C93.6769 4.64551 93.6572 4.45483 93.6572 4.16479V2.52393H93.3027V2.14795H93.6572V1.44165L94.1379 1.15161V2.14795H94.624V2.52393H94.1379V4.19165C94.1379 4.32951 94.146 4.41813 94.1621 4.45752C94.18 4.49691 94.2077 4.52824 94.2453 4.55151C94.2847 4.57479 94.3402 4.58643 94.4118 4.58643C94.4655 4.58643 94.5363 4.58016 94.624 4.56763ZM97.3817 4.08154L97.8812 4.14331C97.8025 4.43514 97.6565 4.66162 97.4435 4.82275C97.2304 4.98389 96.9583 5.06445 96.6271 5.06445C96.2099 5.06445 95.8787 4.93644 95.6334 4.68042C95.3899 4.42261 95.2682 4.06185 95.2682 3.59814C95.2682 3.11833 95.3917 2.74593 95.6388 2.48096C95.8859 2.21598 96.2063 2.0835 96.6002 2.0835C96.9816 2.0835 97.2931 2.2133 97.5348 2.4729C97.7765 2.7325 97.8973 3.09774 97.8973 3.5686C97.8973 3.59725 97.8964 3.64022 97.8947 3.69751H95.7677C95.7856 4.01082 95.8742 4.25073 96.0336 4.41724C96.1929 4.58374 96.3916 4.66699 96.6298 4.66699C96.807 4.66699 96.9583 4.62044 97.0836 4.52734C97.2089 4.43424 97.3083 4.28564 97.3817 4.08154ZM95.7946 3.30005H97.3871C97.3656 3.06014 97.3047 2.88021 97.2045 2.76025C97.0505 2.57406 96.8509 2.48096 96.6056 2.48096C96.3836 2.48096 96.1965 2.55526 96.0443 2.70386C95.8939 2.85246 95.8107 3.05119 95.7946 3.30005ZM98.8155 5V2.14795H99.2505V2.58032C99.3615 2.37801 99.4636 2.24463 99.5567 2.18018C99.6516 2.11572 99.7554 2.0835 99.8682 2.0835C100.031 2.0835 100.197 2.13542 100.365 2.23926L100.199 2.68774C100.08 2.61792 99.9622 2.58301 99.844 2.58301C99.7384 2.58301 99.6435 2.61523 99.5594 2.67969C99.4752 2.74235 99.4153 2.83008 99.3794 2.94287C99.3257 3.11475 99.2989 3.30273 99.2989 3.50684V5H98.8155Z" fill="white"/>
<path d="M5.73 18L7.03 10.63H8.61L8.06 13.75L11.2 10.63H13.13L9.91 13.81L11.83 18H10.2L8.83 14.88L7.66 16.04L7.31 18H5.73ZM12.5855 18L13.8855 10.63H18.4555L19.7255 12.17L18.9655 16.46L17.1555 18H12.5855ZM14.3855 16.74H16.6655L17.4855 16.03L18.0955 12.59L17.5155 11.89H15.2455L14.3855 16.74ZM19.9197 18L21.2197 10.63H22.8697L23.9997 15.51L26.8597 10.63H28.6597L27.3597 18H25.8497L26.6597 13.42L24.0697 17.84H23.2697L22.2397 13.41L21.4297 18H19.9197ZM32.6283 18L33.6983 11.96H31.6283L31.8683 10.63H37.5783L37.3383 11.96H35.2783L34.2083 18H32.6283ZM37.0874 18L38.3874 10.63H43.7474L43.5074 11.96H39.7374L39.4574 13.54H42.8874L42.6574 14.82H39.2274L38.9074 16.67H42.6774L42.4474 18H37.0874ZM44.5697 18L43.6597 16.89L44.5597 11.74L45.8697 10.63H49.3497L50.2997 11.77L49.2397 12.64L48.6097 11.89H46.5097L46.0497 12.28L45.3297 16.34L45.6597 16.74H47.8297L48.7297 15.99L49.6197 17.03L48.4797 18H44.5697ZM50.3882 18L51.6882 10.63H53.2682L52.7682 13.48H55.6382L56.1382 10.63H57.7182L56.4182 18H54.8382L55.4082 14.76H52.5382L51.9682 18H50.3882ZM57.8684 18L59.1684 10.63H60.9684L62.8584 15.49L63.7184 10.63H65.2484L63.9484 18H62.4184L60.5784 13.27H60.2384L59.3984 18H57.8684ZM66.308 18L65.398 16.89L66.298 11.74L67.608 10.63H71.608L72.528 11.74L71.618 16.89L70.308 18H66.308ZM67.398 16.74H69.678L70.138 16.34L70.848 12.28L70.518 11.89H68.258L67.788 12.28L67.068 16.34L67.398 16.74ZM72.6831 18L73.9831 10.63H75.5631L74.5031 16.67H77.9931L77.7531 18H72.6831ZM79.5013 18L78.5913 16.89L79.4913 11.74L80.8013 10.63H84.8013L85.7213 11.74L84.8113 16.89L83.5013 18H79.5013ZM80.5913 16.74H82.8713L83.3313 16.34L84.0413 12.28L83.7113 11.89H81.4513L80.9813 12.28L80.2613 16.34L80.5913 16.74ZM86.7865 18L85.8765 16.89L86.7765 11.74L88.0865 10.63H91.8365L92.8365 11.83L91.7765 12.71L91.0865 11.89H88.7265L88.2665 12.28L87.5465 16.34L87.8765 16.74H89.6265L90.8465 15.81L90.9365 15.26H89.4265L89.6465 14H92.5465L91.8365 18H90.5065L90.6365 17.3L89.7165 18H86.7865ZM95.0895 18L95.5495 15.36L95.2395 15.04L93.8695 10.63H95.5495L96.3795 13.94H96.6795L98.5295 10.63H100.46L97.5395 15.04L97.1095 15.36L96.6395 18H95.0895Z" fill="white"/>
<path d="M11.5 7.5L29.5 6.5L29 8.5L11.5 7.5Z" fill="#345D74"/>
<path d="M32 0.800781L32 5.80078H30L32 0.800781Z" fill="#345D74"/>
<path d="M87.5 7.5L32 8.5L32.5 6.5L87.5 7.5Z" fill="#345D74"/>
<circle cx="30.75" cy="7.55078" r="0.75" fill="#345D74"/>
</svg>
