<svg width="15" height="16" viewBox="0 0 15 16" fill="none" xmlns="http://www.w3.org/2000/svg">
<path d="M9.375 8H10.625C10.625 6.275 9.225 4.875 7.5 4.875V6.125C8.5375 6.125 9.375 6.9625 9.375 8ZM11.875 8H13.125C13.125 4.89375 10.6062 2.375 7.5 2.375V3.625C9.91875 3.625 11.875 5.58125 11.875 8ZM12.5 10.1875C11.7188 10.1875 10.9688 10.0625 10.2688 9.83125C10.2063 9.8125 10.1375 9.8 10.075 9.8C9.9125 9.8 9.75625 9.8625 9.63125 9.98125L8.25625 11.3563C6.4875 10.4563 5.0375 9.0125 4.1375 7.2375L5.5125 5.85625C5.6875 5.69375 5.7375 5.45 5.66875 5.23125C5.4375 4.53125 5.3125 3.78125 5.3125 3C5.3125 2.65625 5.03125 2.375 4.6875 2.375H2.5C2.15625 2.375 1.875 2.65625 1.875 3C1.875 8.86875 6.63125 13.625 12.5 13.625C12.8438 13.625 13.125 13.3438 13.125 13V10.8125C13.125 10.4687 12.8438 10.1875 12.5 10.1875ZM3.14375 3.625H4.08125C4.125 4.175 4.21875 4.71875 4.3625 5.2375L3.6125 5.99375C3.3625 5.2375 3.2 4.45 3.14375 3.625V3.625ZM11.875 12.3562C11.05 12.3 10.25 12.1375 9.5 11.8812L10.25 11.1313C10.7812 11.2813 11.325 11.375 11.875 11.4125V12.3562Z" fill="#E0E0E0"/>
</svg>
