<svg width="15" height="16" viewBox="0 0 15 16" fill="none" xmlns="http://www.w3.org/2000/svg">
<path d="M7.5 8C6.8125 8 6.25 7.4375 6.25 6.75C6.25 6.0625 6.8125 5.5 7.5 5.5C8.1875 5.5 8.75 6.0625 8.75 6.75C8.75 7.4375 8.1875 8 7.5 8ZM11.25 6.875C11.25 4.60625 9.59375 3 7.5 3C5.40625 3 3.75 4.60625 3.75 6.875C3.75 8.3375 4.96875 10.275 7.5 12.5875C10.0312 10.275 11.25 8.3375 11.25 6.875ZM7.5 1.75C10.125 1.75 12.5 3.7625 12.5 6.875C12.5 8.95 10.8313 11.4062 7.5 14.25C4.16875 11.4062 2.5 8.95 2.5 6.875C2.5 3.7625 4.875 1.75 7.5 1.75Z" fill="#E0E0E0"/>
</svg>
